PathFileType	4	(X/Y/Z)	Patient4_TMGait_0pt4_03_left_09.trc.trc
DataRate	CameraRate	NumFrames	NumMarkers	Units	OrigDataRate	OrigDataStartFrame	OrigNumFrames
77.348066298343	77.348066298343	5	33	mm	77.348066298343	1	       141
Frame#	Time	Sacral			L.Shoulder			Chest			R.Shoulder			Neck			R.ASIS			L.ASIS			R.Thigh.Superior			R.Thigh.Lateral			R.Thigh.Inferior			R.Patella			L.Thigh.Superior			L.Thigh.Lateral			L.Thigh.Inferior			L.Patella			L.Shank.Superior			L.Shank.Lateral			L.Shank.Inferior			R.Shank.Superior			R.Shank.Lateral			R.Shank.Inferior			R.Heel			R.Midfoot.Superior			R.Midfoot.Lateral			R.Toe			L.Heel			L.Midfoot.Lateral			L.Midfoot.Superior			L.Toe			L.Elbow			L.Wrist			R.Elbow			R.Wrist			
		X1	Y1	Z1	X2	Y2	Z2	X3	Y3	Z3	X4	Y4	Z4	X5	Y5	Z5	X6	Y6	Z6	X7	Y7	Z7	X8	Y8	Z8	X9	Y9	Z9	X10	Y10	Z10	X11	Y11	Z11	X12	Y12	Z12	X13	Y13	Z13	X14	Y14	Z14	X15	Y15	Z15	X16	Y16	Z16	X17	Y17	Z17	X18	Y18	Z18	X19	Y19	Z19	X20	Y20	Z20	X21	Y21	Z21	X22	Y22	Z22	X23	Y23	Z23	X24	Y24	Z24	X25	Y25	Z25	X26	Y26	Z26	X27	Y27	Z27	X28	Y28	Z28	X29	Y29	Z29	X30	Y30	Z30	X31	Y31	Z31	X32	Y32	Z32	X33	Y33	Z33	

1	11.430000000000	827.629319110323	1006.348309195568	526.156324380881	977.164309692946	1429.094519683002	311.235686950108	1100.570342786078	1370.022724988507	461.637014865600	1037.106108586234	1449.150026694272	641.771378220809	975.759763245989	1496.862643499835	467.044989096171	1067.244863613912	945.493308449896	620.716404790220	1025.368878824435	965.390901354424	348.880419205857	1098.636143504151	740.256611157511	590.197381407850	1016.922525188159	633.634584619940	656.623343030837	1086.165589843356	579.174682236907	571.365382393328	1082.297270880733	493.129400410241	576.391519001179	1110.315615560715	781.967570267794	367.957132888687	1059.105534811915	656.655220995687	288.831472674332	1167.731767311883	593.788612145950	337.652038521028	1179.404542524391	504.953603352519	327.386352140352	1112.530588697393	437.564062918209	324.001561968081	968.002165333902	395.789709007178	283.664830712331	958.920707342989	265.103615387145	337.648759305722	1054.948503860613	404.347848498975	584.989655495025	987.360759478667	301.351790534453	651.976576548052	1020.992672892652	206.470089662906	584.308761154407	882.471607159484	42.950830798404	565.258849112378	1056.573251021922	96.546660406864	586.405766689518	972.148330159032	36.979204836575	633.122252059170	1178.981230970636	43.054879477645	603.281536178253	770.651954411684	206.268799514258	385.337993802851	821.634586711569	153.698585004920	304.741154648288	928.845905396302	158.861602247667	320.273381017549	1000.130551257086	41.406317313012	294.085434917184	893.658512047504	1084.747356854643	208.748419143339	969.464375489560	832.935760901287	182.164945638891	1126.487767257524	1140.459145670042	807.330254801312	1368.249364811493	1153.270367485872	735.824403704086	
2	11.442928571429	826.184059755104	1007.580026758923	528.356367472342	975.992580643044	1429.736613620217	312.986751099737	1100.593715907680	1369.902504663013	462.059865762715	1039.423353802631	1449.358875870845	642.752263980452	976.273270124252	1497.302550427260	468.680646524912	1065.957942364918	945.294675811902	621.099703123829	1022.617216520944	966.439230667677	349.764801684997	1095.490356400612	739.695620404160	590.282522411192	1013.089225225978	633.669049226910	656.937583141567	1081.408586836007	578.761394562414	571.411139273853	1077.069566326007	493.014123436030	576.350209384992	1109.006147875854	785.240890824690	368.674886229568	1059.316011591667	659.271907500660	289.406154366529	1169.000739553594	598.042816276548	337.551113334990	1182.351355458195	509.981013797473	327.436331786648	1118.201398934247	440.986602056339	323.960869204848	975.984223971086	393.064559028613	283.672576377254	973.235598270716	262.094543701054	336.752483315812	1049.563632905871	404.275241104120	584.995966570645	982.119559397825	301.340777827589	652.068538823772	1015.594409993033	206.451087307052	584.342684868702	877.043903732601	42.933732140617	565.343748294283	1051.048200056965	96.525999417095	586.437404815116	966.611734820646	36.955463293713	633.133102632270	1173.440420711927	43.076926088590	603.368183453358	788.986438357087	193.388503435375	384.918617850227	841.676422256107	145.135473185992	303.103268176923	948.182386325813	155.579738116740	318.197611077481	1024.991970131073	43.063232059099	289.365409262966	888.132260245701	1086.072638431498	212.456614668954	957.492955133092	832.611416783774	186.866725404867	1135.591091584709	1142.124444651524	805.563672056099	1374.782019128353	1163.390561875204	730.210751016474	
3	11.455857142857	824.759298473439	1008.790901018994	530.512487214514	974.851662578998	1430.343502053789	314.697944298746	1100.630801868203	1369.755480096829	462.456833592769	1041.730948155140	1449.540909310053	643.695659485039	976.797045116435	1497.713560511330	470.270741223212	1064.688999296408	945.069445636106	621.453558748001	1019.894677219802	967.452241717252	350.602618263735	1092.355019540123	739.131070714485	590.312391078970	1009.314885973008	633.694575009076	657.244691380683	1076.694915692024	578.347680901681	571.435661668226	1071.897019718710	492.889321794627	576.307403486410	1107.622808282493	788.350111327284	369.356225931816	1059.353244377564	661.732402694805	290.002398546640	1170.005727791724	602.042781595112	337.564376478021	1184.985830828964	514.808352788691	327.576636361594	1123.615446409285	444.289553699138	323.941210557801	983.887923067398	390.114084556624	283.636691180750	987.639296195733	258.945538591134	335.757901954111	1044.237756774095	404.197458806395	585.004281345874	976.932782722966	301.321277876811	652.159683776420	1010.237899062403	206.424712592572	584.371888174168	871.649532385479	42.915893902042	565.424108633191	1045.564108051887	96.504169727777	586.466483623828	961.118895775858	36.930839118080	633.145311497844	1167.941704553710	43.096562672173	603.449909588305	807.682816034958	180.242171325616	384.305722678404	862.050920275344	136.396839404435	301.301052371756	967.738499623198	152.202416116321	316.008620449885	1050.081047542672	44.803083041525	284.572973723254	882.661344368262	1087.377198555239	216.089149184198	945.686261958425	832.324731857886	191.498621819664	1144.563625039294	1143.750332063167	803.750191571698	1381.154320892945	1173.292586364164	724.591001184348	
4	11.468785714286	823.374305581929	1009.953954610098	532.572945647443	973.776089136010	1430.879277370613	316.318015396446	1100.692952049280	1369.552467230811	462.796314510079	1044.008258316908	1449.665872963584	644.556511280662	977.339151742018	1498.065150466784	471.761113695867	1063.453972471281	944.795258929454	621.747958456240	1017.234466401504	968.383780593941	351.347761446286	1089.254234884202	738.559981594784	590.246532887549	1005.662775855944	633.700178729570	657.535814930782	1072.080889965814	577.931183372164	571.420589403817	1066.843401776307	492.742134886155	576.261030323576	1106.080152191902	791.116518495905	369.980007809287	1059.056588650855	663.890990858463	290.610122797641	1170.488610457570	605.543029331565	337.786111406165	1187.010314885276	519.245009897316	327.882756603146	1128.521790786184	447.361746259845	323.963866527193	991.639550886679	386.780924093279	283.509205464608	1002.150297184723	255.605239277931	334.608278335664	1039.033983118915	404.104167820808	585.013052252432	971.854285829913	301.285358213028	652.251002079508	1004.959441186598	206.382992873931	584.392609681506	866.312035863958	42.896983684105	565.496560043369	1040.149446141555	96.480404057841	586.491454266343	955.699812062561	36.904704955072	633.159103262933	1162.515111138826	43.110040654773	603.523394369753	826.994596343256	166.748600007327	383.351428310213	882.993734872931	127.443274282455	299.239352949033	987.633289744065	148.732087517095	313.662133216190	1075.490784197810	46.763826281767	279.765185524740	877.316141231372	1088.636714397116	219.564341920149	934.216729103985	832.106583275791	195.980496631497	1153.257698728389	1145.283384220856	801.835677504075	1387.214966101705	1182.713201687736	718.959039544040	
5	11.481714285714	822.041586774762	1011.044685235459	534.496467399174	972.794254533779	1431.313758066653	317.802728180902	1100.788670518431	1369.266018596036	463.050340305856	1046.238419373661	1449.704852484317	645.296289406378	977.906475591410	1498.329754360140	473.107243259173	1062.261783823782	944.454394380308	621.956093157634	1014.661376559611	969.189437651467	351.964078409113	1086.207103585888	737.978319229193	590.057667997790	1002.183592596174	633.675108594223	657.804988251535	1067.610447175896	577.507704405139	571.351911121351	1061.956300458668	492.560066728236	576.210628062172	1104.300021250795	793.384777056693	370.536808359691	1058.295643184631	665.629634075105	291.211958473753	1170.232254721114	608.340186977063	338.299077350554	1188.187187078642	523.140379192929	328.417960242432	1132.723942848433	450.119374853551	324.052283718635	999.207426124386	382.958880068099	283.241014097001	1016.790491984523	252.074864615705	333.273924301080	1033.998395464589	403.985560633301	585.022037336242	966.919057192976	301.226036707058	652.345796361617	999.777000381529	206.317855584900	584.402456515036	861.034311208762	42.877401551552	565.559171236266	1034.810892869901	96.453775030272	586.511844875092	950.361778023905	36.876611344541	633.174733131435	1157.168470188719	43.113570933457	603.586700070628	847.139907576861	152.912957482316	381.938427354258	904.719261734921	118.304615214107	296.858376528224	1007.973583093862	145.226853026282	311.150078166621	1101.298882749239	49.114702188467	275.047137007909	872.148849010271	1089.830749589976	222.822910589685	923.204313728449	831.977201817266	200.250893221386	1161.564322128669	1146.675054358388	799.769301293203	1392.856891879866	1191.435966307482	713.298151874749	
